<?xml version="1.0" encoding="utf-8"?>
<!-- Generator: Adobe Illustrator 21.0.0, SVG Export Plug-In . SVG Version: 6.00 Build 0)  -->
<svg version="1.1" id="Layer_1" xmlns="http://www.w3.org/2000/svg" xmlns:xlink="http://www.w3.org/1999/xlink" x="0px" y="0px"
	 viewBox="0 0 160 160" style="enable-background:new 0 0 160 160;" xml:space="preserve">
<style type="text/css">
	.st0{fill:#FFFFFF;}
	.st1{fill:none;stroke:#FFFFFF;stroke-width:3;stroke-linejoin:round;stroke-miterlimit:3;}
</style>
<g>
	<path class="st0" d="M80,3c20.6,0,40,8,54.5,22.5C149,40.1,157,59.5,157,80c0,20.6-8,40-22.5,54.5C120,149,100.6,157,80,157
		s-40-8-54.5-22.5C11,120,3,100.6,3,80s8-40,22.5-54.5C40,11,59.4,3,80,3 M80,0C58.6,0,38.5,8.3,23.4,23.4C8.3,38.5,0,58.6,0,80
		s8.3,41.5,23.4,56.6C38.5,151.7,58.6,160,80,160s41.5-8.3,56.6-23.4C151.7,121.5,160,101.4,160,80s-8.3-41.4-23.4-56.6
		C121.5,8.3,101.4,0,80,0L80,0z"/>
</g>
<path class="st1" d="M119.3,83.9c-0.4-1.7-16-11.9-21.7-8.1c0.3,0.7,0.3,1.9,0.3,3.6c-2.3-1-4.3-2.5-5.3-4.8
	c-3.9-9.7-10.5-11.1-12.9-13.5s-7.5-7.1-9.5-9.5c-2-2.5-0.9-8.5-0.9-10.3s-3.2-3.7-6.2,1.4c-3,5.1-2.5,11.7-2.1,13s1.2,2.6,3.5,5.1
	c2.2,2.5,2.7,4.6,2.7,4.6s-9.2,1.8-16.8,1.5C47.7,66.8,45,70,44,71s-1.4,2.7-0.7,4.6s3.2,2.8,3.2,2.8s-0.3,0-2.3,1.5s-1.3,5.4-1,6.3
	s2.4,2,4.3,2.6c-2,1.3-1.4,5.6-1,6s2.4,2.4,4.2,3.1c-1,1.3,0,4,0.2,4.6s2,1.6,4.2,2.4c2.1,0.7,23.1,1,29.1-0.2
	c4.2-0.8,8.6-0.7,10.5,0.2c-0.4,3.3-0.7,5.9-0.6,6.9c0.6,4,11.6,4.6,14,4.8C110.5,116.9,119.8,85.5,119.3,83.9z"/>
</svg>
