<?xml version="1.0" encoding="utf-8"?>
<!-- Generator: Adobe Illustrator 21.0.0, SVG Export Plug-In . SVG Version: 6.00 Build 0)  -->
<svg version="1.1" id="Layer_1" xmlns="http://www.w3.org/2000/svg" xmlns:xlink="http://www.w3.org/1999/xlink" x="0px" y="0px"
	 viewBox="0 0 160 160" style="enable-background:new 0 0 160 160;" xml:space="preserve">
<style type="text/css">
	.st0{fill:#FFFFFF;}
	.st1{fill:none;stroke:#FFFFFF;stroke-width:3;stroke-miterlimit:10;}
</style>
<g>
	<path class="st0" d="M80,3c20.6,0,40,8,54.5,22.5C149,40.1,157,59.5,157,80c0,20.6-8,40-22.5,54.5C120,149,100.6,157,80,157
		s-40-8-54.5-22.5C11,120,3,100.6,3,80s8-40,22.5-54.5C40,11,59.4,3,80,3 M80,0C58.6,0,38.5,8.3,23.4,23.4C8.3,38.5,0,58.6,0,80
		s8.3,41.5,23.4,56.6C38.5,151.7,58.6,160,80,160s41.5-8.3,56.6-23.4C151.7,121.5,160,101.4,160,80s-8.3-41.4-23.4-56.6
		C121.5,8.3,101.4,0,80,0L80,0z"/>
</g>
<path class="st1" d="M80.1,51.8c7.3,0,14.4,2.5,20.1,7l2.1,1.7l1.9-1.9l1.5-1.5c0.4,0.4,0.9,0.9,1.3,1.4l-1.5,1.5l-1.9,1.9l1.7,2.1
	c4.7,5.8,7.1,12.8,7,20.1c0,17.8-14.5,32.3-32.3,32.3s-32.3-14.5-32.3-32.3S62.3,51.8,80.1,51.8"/>
<g>
	<path class="st0" d="M88.8,39v2.9H71.2V39H88.8 M91.8,36H68.2v8.9h23.6V36L91.8,36z"/>
</g>
<polyline class="st1" points="66.4,97.7 80,84.1 80,57.5 "/>
</svg>
