<?xml version="1.0" encoding="utf-8"?>
<!-- Generator: Adobe Illustrator 21.0.0, SVG Export Plug-In . SVG Version: 6.00 Build 0)  -->
<svg version="1.1" id="Layer_1" xmlns="http://www.w3.org/2000/svg" xmlns:xlink="http://www.w3.org/1999/xlink" x="0px" y="0px"
	 viewBox="0 0 160 160" style="enable-background:new 0 0 160 160;" xml:space="preserve">
<style type="text/css">
	.st0{fill:#FFFFFF;}
</style>
<path class="st0" d="M68.2,117.5l50.4-44.9c8.1-7.2,8.8-19.7,1.6-27.8c-7.2-8.1-19.7-8.8-27.8-1.6L42,88.1
	c-8.1,7.2-8.8,19.7-1.6,27.8C47.6,124,60.1,124.7,68.2,117.5 M43.9,90.2l50.4-45c7-6.2,17.7-5.6,23.9,1.4c6.2,7,5.6,17.7-1.4,23.9
	l-50.4,44.9c-7,6.2-17.7,5.6-23.9-1.4C36.3,107.1,36.9,96.4,43.9,90.2L43.9,90.2z"/>
<path class="st0" d="M87.6,53.9L53.2,84.4L73,106.8l34.3-30.6L87.6,53.9z M96.2,66.2c0.8,0.9,0.7,2.3-0.2,3.1
	c-0.9,0.7-2.2,0.6-3-0.3s-0.7-2.3,0.2-3.1C94,65.2,95.4,65.3,96.2,66.2z M92.3,61.8c0.8,0.9,0.7,2.3-0.2,3.1
	c-0.9,0.8-2.3,0.7-3.1-0.2c-0.8-0.9-0.7-2.3,0.2-3.1C90.2,60.8,91.5,60.9,92.3,61.8z M91.3,73.5c-0.9,0.8-2.3,0.7-3.1-0.2
	c-0.8-0.9-0.7-2.3,0.2-3.1c0.9-0.8,2.3-0.7,3.1,0.2C92.3,71.3,92.2,72.7,91.3,73.5z M85.4,57.3c0.9-0.8,2.3-0.7,3.1,0.2
	c0.8,0.9,0.7,2.3-0.2,3.1c-0.9,0.8-2.3,0.7-3.1-0.2C84.4,59.4,84.5,58.1,85.4,57.3z M87.6,66c0.8,0.9,0.7,2.3-0.2,3.1
	c-0.9,0.8-2.3,0.7-3.1-0.2c-0.8-0.9-0.7-2.3,0.2-3.1C85.4,65.1,86.8,65.1,87.6,66z M86.5,77.7c-0.9,0.8-2.3,0.7-3.1-0.2
	c-0.8-0.9-0.7-2.3,0.2-3.1c0.9-0.8,2.3-0.7,3.1,0.2C87.5,75.5,87.4,76.9,86.5,77.7z M80.6,61.5c0.9-0.8,2.3-0.7,3.1,0.2
	c0.8,0.9,0.7,2.3-0.2,3.1c-0.9,0.8-2.3,0.7-3.1-0.2C79.6,63.7,79.7,62.3,80.6,61.5z M82.8,70.3c0.8,0.9,0.7,2.3-0.2,3.1
	c-0.9,0.8-2.3,0.7-3.1-0.2c-0.8-0.9-0.7-2.3,0.2-3.1C80.6,69.3,82,69.4,82.8,70.3z M81.8,81.9c-0.9,0.8-2.3,0.7-3.1-0.2
	c-0.8-0.9-0.7-2.3,0.2-3.1c0.9-0.8,2.3-0.7,3.1,0.2C82.7,79.8,82.7,81.1,81.8,81.9z M75.9,65.7c0.9-0.8,2.3-0.7,3.1,0.2
	c0.8,0.9,0.7,2.3-0.2,3.1l0,0c-0.9,0.8-2.3,0.7-3.1-0.2C74.9,67.9,75,66.5,75.9,65.7z M78.1,74.5c0.8,0.9,0.7,2.3-0.2,3.1
	s-2.3,0.7-3.1-0.2c-0.8-0.9-0.7-2.3,0.2-3.1C75.9,73.5,77.3,73.6,78.1,74.5z M77,86.2c-0.9,0.8-2.3,0.7-3.1-0.2
	c-0.8-0.9-0.7-2.3,0.2-3.1c0.9-0.8,2.3-0.7,3.1,0.2C78,84,77.9,85.4,77,86.2z M71.1,70c0.9-0.8,2.3-0.7,3.1,0.2
	c0.8,0.9,0.7,2.3-0.2,3.1c-0.9,0.8-2.3,0.7-3.1-0.2C70.1,72.2,70.2,70.8,71.1,70z M73.3,78.8c0.8,0.9,0.7,2.3-0.2,3.1
	c-0.9,0.8-2.3,0.7-3.1-0.2c-0.8-0.9-0.7-2.3,0.2-3.1C71.1,77.8,72.5,77.9,73.3,78.8z M72.3,90.4c-0.9,0.8-2.3,0.7-3.1-0.2
	c-0.8-0.9-0.7-2.3,0.2-3.1c0.9-0.8,2.3-0.7,3.1,0.2C73.2,88.3,73.2,89.6,72.3,90.4z M66.3,74.2c0.9-0.8,2.3-0.7,3.1,0.2
	c0.8,0.9,0.7,2.3-0.2,3.1c-0.9,0.8-2.3,0.7-3.1-0.2C65.4,76.4,65.5,75,66.3,74.2z M68.5,83c0.8,0.9,0.7,2.3-0.2,3.1
	c-0.9,0.8-2.3,0.7-3.1-0.2c-0.8-0.9-0.7-2.3,0.2-3.1C66.4,82,67.7,82.1,68.5,83z M61.6,78.5c0.9-0.8,2.3-0.7,3.1,0.2
	c0.8,0.9,0.7,2.3-0.2,3.1c-0.9,0.8-2.3,0.7-3.1-0.2C60.6,80.6,60.7,79.3,61.6,78.5z M56.7,85.8c-0.8-0.9-0.7-2.3,0.2-3.1
	c0.9-0.8,2.3-0.7,3.1,0.2c0.8,0.9,0.7,2.3-0.2,3.1C58.8,86.8,57.5,86.7,56.7,85.8z M60.5,90.1c-0.8-0.9-0.7-2.3,0.2-3.1
	c0.9-0.8,2.3-0.7,3.1,0.2c0.8,0.9,0.7,2.3-0.2,3.1C62.7,91.1,61.3,91,60.5,90.1z M67.5,94.7c-0.9,0.8-2.3,0.7-3.1-0.2
	c-0.8-0.9-0.7-2.3,0.2-3.1c0.9-0.8,2.3-0.7,3.1,0.2C68.5,92.5,68.4,93.9,67.5,94.7L67.5,94.7z M68.3,98.9c-0.8-0.9-0.7-2.3,0.2-3.1
	c0.9-0.8,2.3-0.7,3.1,0.2c0.8,0.9,0.7,2.3-0.2,3.1C70.5,99.8,69.1,99.7,68.3,98.9z M75.3,103.4c-0.9,0.8-2.3,0.7-3.1-0.2
	c-0.8-0.9-0.7-2.3,0.2-3.1c0.9-0.8,2.3-0.7,3.1,0.2C76.2,101.2,76.2,102.6,75.3,103.4z M73.1,94.6c-0.8-0.9-0.7-2.3,0.2-3.1
	c0.9-0.8,2.3-0.7,3.1,0.2c0.8,0.9,0.7,2.3-0.2,3.1C75.2,95.6,73.9,95.5,73.1,94.6z M80,99.1c-0.9,0.8-2.3,0.7-3.1-0.2
	c-0.8-0.9-0.7-2.3,0.2-3.1c0.9-0.8,2.3-0.7,3.1,0.2C81,97,80.9,98.3,80,99.1z M77.8,90.4c-0.8-0.9-0.7-2.3,0.2-3.1
	c0.9-0.8,2.3-0.7,3.1,0.2c0.8,0.9,0.7,2.3-0.2,3.1C80,91.3,78.6,91.3,77.8,90.4z M84.8,94.9c-0.9,0.8-2.3,0.7-3.1-0.2
	c-0.8-0.9-0.7-2.3,0.2-3.1c0.9-0.8,2.3-0.7,3.1,0.2C85.8,92.7,85.7,94.1,84.8,94.9z M82.6,86.1c-0.8-0.9-0.7-2.3,0.2-3.1
	c0.9-0.8,2.3-0.7,3.1,0.2c0.8,0.9,0.7,2.3-0.2,3.1C84.8,87.1,83.4,87,82.6,86.1z M89.5,90.7c-0.9,0.8-2.3,0.7-3.1-0.2
	c-0.8-0.9-0.7-2.3,0.2-3.1c0.9-0.8,2.3-0.7,3.1,0.2C90.5,88.5,90.4,89.9,89.5,90.7z M87.3,81.9c-0.8-0.9-0.7-2.3,0.2-3.1
	c0.9-0.8,2.3-0.7,3.1,0.2c0.8,0.9,0.7,2.3-0.2,3.1C89.5,82.9,88.1,82.8,87.3,81.9z M94.3,86.4c-0.9,0.8-2.3,0.7-3.1-0.2
	c-0.8-0.9-0.7-2.3,0.2-3.1c0.9-0.8,2.3-0.7,3.1,0.2C95.3,84.3,95.2,85.6,94.3,86.4z M92.1,77.6c-0.8-0.9-0.7-2.3,0.2-3.1
	c0.9-0.8,2.3-0.7,3.1,0.2c0.8,0.9,0.7,2.3-0.2,3.1C94.3,78.6,92.9,78.5,92.1,77.6z M99.1,82.2C98.2,83,96.8,82.9,96,82
	s-0.7-2.3,0.2-3.1c0.9-0.8,2.3-0.7,3.1,0.2C100,80,100,81.4,99.1,82.2z M96.9,73.4c-0.8-0.9-0.7-2.3,0.2-3.1
	c0.9-0.8,2.3-0.7,3.1,0.2c0.8,0.9,0.7,2.3-0.2,3.1C99,74.4,97.7,74.3,96.9,73.4z M100.7,77.8c-0.8-0.9-0.7-2.3,0.2-3.1
	c0.9-0.8,2.3-0.7,3.1,0.2c0.8,0.9,0.7,2.3-0.2,3.1C102.9,78.7,101.5,78.7,100.7,77.8z"/>
<path class="st0" d="M66.4,45.2l9.5,8.5l2.1-1.9l-9.8-8.7c-8.1-7.2-20.6-6.5-27.8,1.6S33.9,65.3,42,72.5l6,5.4l2.1-1.9l-6.3-5.6
	c-7-6.2-7.6-16.9-1.4-23.9C48.7,39.6,59.4,39,66.4,45.2"/>
<path class="st0" d="M94.3,115.4l-9.5-8.5l-2.1,1.9l9.7,8.6c8.1,7.2,20.6,6.5,27.8-1.6s6.5-20.6-1.6-27.8l-6.9-6.2l-2.1,1.9l7.1,6.4
	c7,6.2,7.6,16.9,1.4,23.9C112,121,101.2,121.6,94.3,115.4"/>
<g>
	<path class="st0" d="M80,3c20.6,0,40,8,54.5,22.5C149,40.1,157,59.5,157,80c0,20.6-8,40-22.5,54.5C120,149,100.6,157,80,157
		s-40-8-54.5-22.5C11,120,3,100.6,3,80s8-40,22.5-54.5C40,11,59.4,3,80,3 M80,0C58.6,0,38.5,8.3,23.4,23.4C8.3,38.5,0,58.6,0,80
		s8.3,41.5,23.4,56.6C38.5,151.7,58.6,160,80,160s41.5-8.3,56.6-23.4C151.7,121.5,160,101.4,160,80s-8.3-41.4-23.4-56.6
		C121.5,8.3,101.4,0,80,0L80,0z"/>
</g>
</svg>
