<?xml version="1.0" encoding="utf-8"?>
<!-- Generator: Adobe Illustrator 21.0.0, SVG Export Plug-In . SVG Version: 6.00 Build 0)  -->
<svg version="1.1" id="Layer_1" xmlns="http://www.w3.org/2000/svg" xmlns:xlink="http://www.w3.org/1999/xlink" x="0px" y="0px"
	 viewBox="0 0 120 24" style="enable-background:new 0 0 120 24;" xml:space="preserve">
<style type="text/css">
	.st0{fill:#5786AC;}
	.st1{fill:#F37160;}
</style>
<path class="st0" d="M0.2,15.1c0-5.2,2.7-8.2,8.1-8.2c1.6,0,3.4,0.4,4.6,0.9l-0.5,4.1c-1.1-0.5-3-0.7-3.9-0.7c-2,0-2.9,1.4-2.9,3.7
	c0,2.8,1.2,3.4,3,3.4c1.3,0,2.7-0.3,3.8-0.7l1.3,4.1c-1.3,0.7-3.4,1.2-5.6,1.2C3.1,22.9,0.2,20.4,0.2,15.1z"/>
<path class="st0" d="M27.1,7.3l-0.3,4c-0.4-0.1-0.8-0.2-1.2-0.2c-1.6,0-3.4,0.6-4.6,2.1v9.3h-5.2v-12l-0.2-2.8l4.8-0.6L20.9,9
	c0.9-1.3,2.6-2.1,4.3-2.1C25.9,6.9,26.6,7.1,27.1,7.3z"/>
<path class="st0" d="M28.4,2.9c0-1.8,1.1-2.9,3-2.9s3,1.1,3,2.9c0,1.9-1.1,2.9-3,2.9S28.4,4.8,28.4,2.9z M28.8,7.2L34,7v15.6h-5.2
	V7.2z"/>
<path class="st0" d="M36.7,14.9c0-5.2,2.7-7.9,7.8-7.9s7.8,2.7,7.8,7.9c0,5.3-2.7,8-7.8,8C39.3,22.9,36.7,20.2,36.7,14.9z
	 M46.9,14.9c0-2.9-0.6-4.1-2.4-4.1c-1.8,0-2.4,1.2-2.4,4.1s0.6,4.1,2.4,4.1C46.3,19,46.9,17.8,46.9,14.9z"/>
<path class="st1" d="M63.9,18.9l-0.2,3.7C63,22.8,62.3,23,61.3,23c-3.6,0-5.8-1.6-5.8-5.3v-7H54V7h1.5l0.7-4.4l4.6-0.2v4.5h3.1
	l-0.3,3.6h-2.8V16c0,2.3,0.3,2.8,1.7,2.8C62.9,19,63.5,18.9,63.9,18.9z"/>
<path class="st1" d="M78.7,18.3l1.2,3.1c-1.9,1-4.1,1.5-6.6,1.5c-5,0-7.9-2.6-7.9-8c0-5.3,2.5-7.9,7.7-7.9c5.3,0,7.1,2.9,7.1,9.5
	h-9.3c0.3,1.7,1.2,2.4,3.7,2.4C75.6,18.9,77,18.8,78.7,18.3z M70.9,14h4.6c-0.1-2-0.6-3.1-2.2-3.1C71.6,10.9,71,11.9,70.9,14z"/>
<path class="st1" d="M94.2,7.3l-0.3,4c-0.4-0.1-0.8-0.2-1.2-0.2c-1.6,0-3.4,0.6-4.6,2.1v9.3h-5.2v-12l-0.2-2.8l4.8-0.6L88,9
	c0.9-1.3,2.6-2.1,4.2-2.1C93,6.9,93.6,7.1,94.2,7.3z"/>
<path class="st1" d="M119.8,14v8.6h-5.2v-8.7c0-2-0.5-3-2-2.9c-0.8,0-1.7,0.7-2.2,1.9c0,0.3,0,0.7,0,1.1v8.6h-5.2v-8.7
	c0-2-0.5-3-2-2.9c-0.8,0-1.6,0.6-2.1,1.7v9.9h-5.2v-12l-0.2-2.8l4.8-0.6l0.5,1.7c1.1-1.2,2.4-2,4.3-2c2.1,0,3.5,0.8,4.3,2.4
	c1.1-1,2.7-2.4,5-2.4C118.2,6.9,119.8,9.3,119.8,14z"/>
</svg>
