<?xml version="1.0" encoding="utf-8"?>
<!-- Generator: Adobe Illustrator 21.0.0, SVG Export Plug-In . SVG Version: 6.00 Build 0)  -->
<svg version="1.1" id="Layer_1" xmlns="http://www.w3.org/2000/svg" xmlns:xlink="http://www.w3.org/1999/xlink" x="0px" y="0px"
	 viewBox="0 0 40 40" style="enable-background:new 0 0 40 40;" xml:space="preserve">
<style type="text/css">
	.st0{fill:none;stroke:#F37160;stroke-width:1.5;stroke-linecap:round;stroke-miterlimit:10;}
	.st1{fill:none;stroke:#F37160;stroke-width:1.5;stroke-linecap:round;stroke-linejoin:round;stroke-miterlimit:10;}
	.st2{fill:#F37160;}
</style>
<g>
	<path class="st0" d="M11.6,9.7c0,0-2.1,5.2-2.3,9.3c0,0,0.2,2.4-1.8,3c0,0-3,0.8-3.5,4.1c0,0-1,4.7,5.4,4.4"/>
	<path class="st0" d="M19.5,9.7c0,0,2.1,5.2,2.3,9.3c0,0-0.2,2.4,1.8,3c0,0,3,0.8,3.5,4.1c0,0,1,4.7-5.4,4.4"/>
	<path class="st0" d="M8.3,27.8c0,0,2.2,0.4,3.4,1.2c1.2,0.8,4.3,1.8,7,0.2s3.8-1.4,3.8-1.4"/>
	<polyline class="st1" points="25.9,14.5 28.4,18.4 36.1,9.5 	"/>
</g>
</svg>
