<?xml version="1.0" encoding="utf-8"?>
<!-- Generator: Adobe Illustrator 21.0.0, SVG Export Plug-In . SVG Version: 6.00 Build 0)  -->
<svg version="1.1" id="Layer_1" xmlns="http://www.w3.org/2000/svg" xmlns:xlink="http://www.w3.org/1999/xlink" x="0px" y="0px"
	 viewBox="0 0 22 22" style="enable-background:new 0 0 22 22;" xml:space="preserve">
<style type="text/css">
	.st0{fill:#FFFFFE;}
</style>
<path id="icon-close" class="st0" d="M20.4,0.3c0.4-0.3,0.9-0.3,1.3,0c0.4,0.3,0.4,0.9,0,1.2l0,0L12.4,11l9.3,9.5
	c0.4,0.3,0.4,0.9,0,1.2c-0.4,0.3-0.9,0.3-1.3,0L11,12.1l-9.4,9.7c-0.4,0.3-0.9,0.3-1.3,0s-0.4-0.9,0-1.2L9.6,11L0.3,1.5
	c-0.3-0.3-0.4-0.8-0.1-1.1l0.1-0.1c0.4-0.3,0.9-0.3,1.3,0l0,0L11,9.9L20.4,0.3z"/>
</svg>
