<?xml version="1.0" encoding="utf-8"?>
<!-- Generator: Adobe Illustrator 21.0.0, SVG Export Plug-In . SVG Version: 6.00 Build 0)  -->
<svg version="1.1" id="Layer_1" xmlns="http://www.w3.org/2000/svg" xmlns:xlink="http://www.w3.org/1999/xlink" x="0px" y="0px"
	 viewBox="0 0 40 40" style="enable-background:new 0 0 40 40;" xml:space="preserve">
<style type="text/css">
	.st0{fill:none;stroke:#F37160;stroke-width:1.5;stroke-linecap:round;stroke-miterlimit:10;}
	.st1{fill:none;stroke:#F37160;stroke-width:1.5;stroke-linecap:round;stroke-linejoin:round;stroke-miterlimit:10;}
	.st2{fill:#F37160;}
</style>
<g>
	<g>
		<path class="st2" d="M15.7,22.9h-1.6v1.6h-1.4v-1.6h-1.6v-1.3h1.6V20h1.4v1.6h1.6V22.9z"/>
		<path class="st2" d="M20.9,23.9v1.4h-4v-1.4h1.2v-4.4L17,19.6l-0.1-1.4l2.8-0.4v6.1H20.9z"/>
		<path class="st2" d="M21.5,24.3c0-1.4,1-2.1,1.9-2.7c0.7-0.5,1.4-0.9,1.4-1.7c0-0.5-0.4-0.8-1-0.8c-0.6,0-1.1,0.2-1.6,0.4
			l-0.4-1.3c0.7-0.4,1.5-0.5,2.1-0.5c1.8,0,2.5,1.1,2.5,2.1c0,1-0.6,1.6-1.3,2.2c-0.8,0.7-1.7,1.2-1.7,1.8h3.3l-0.1,1.4h-5V24.3z"/>
		<path class="st2" d="M32.7,22v3.2h-1.6V22c0-0.6-0.2-1.1-0.8-1.1c-0.4,0-0.7,0.2-1,0.6v3.8h-1.6v-7.7l1.6-0.1v2.6
			c0.4-0.3,0.9-0.5,1.5-0.5C32,19.7,32.7,20.4,32.7,22z"/>
	</g>
	<path class="st0" d="M23.6,30.4c-5.8,2.5-12.4-0.2-14.9-5.9s0.2-12.4,5.9-14.9s12.4,0.2,14.9,5.9"/>
	<g>
		<line class="st0" x1="29.6" y1="15.5" x2="30.6" y2="10.2"/>
		<line class="st0" x1="29.6" y1="15.5" x2="23.9" y2="14"/>
	</g>
</g>
</svg>
