<?xml version="1.0" encoding="utf-8"?>
<!-- Generator: Adobe Illustrator 21.0.0, SVG Export Plug-In . SVG Version: 6.00 Build 0)  -->
<svg version="1.1" id="Layer_1" xmlns="http://www.w3.org/2000/svg" xmlns:xlink="http://www.w3.org/1999/xlink" x="0px" y="0px"
	 viewBox="0 0 40 40" style="enable-background:new 0 0 40 40;" xml:space="preserve">
<style type="text/css">
	.st0{fill:none;stroke:#F37160;stroke-width:1.5;stroke-linecap:round;stroke-miterlimit:10;}
	.st1{fill:none;stroke:#F37160;stroke-width:1.5;stroke-linecap:round;stroke-linejoin:round;stroke-miterlimit:10;}
	.st2{fill:#F37160;}
</style>
<g>
	<polyline class="st1" points="11.3,18.3 19.7,22.3 28.1,18.5 	"/>
	<polyline class="st1" points="19.7,22.3 19.6,32.2 24.5,29.7 	"/>
	<g>
		<line class="st1" x1="14.6" y1="26" x2="7.7" y2="30.8"/>
		<line class="st1" x1="9.3" y1="26.5" x2="7.7" y2="30.8"/>
		<line class="st1" x1="12.1" y1="31.1" x2="7.7" y2="30.8"/>
	</g>
	<g>
		<line class="st1" x1="19.6" y1="16.2" x2="19.5" y2="7.8"/>
		<line class="st1" x1="22.3" y1="11.5" x2="19.5" y2="7.8"/>
		<line class="st1" x1="16.9" y1="11.3" x2="19.5" y2="7.8"/>
	</g>
	<g>
		<line class="st1" x1="25.7" y1="26.2" x2="32.3" y2="31.4"/>
		<line class="st1" x1="27.7" y1="31.2" x2="32.3" y2="31.4"/>
		<line class="st1" x1="31.2" y1="27.1" x2="32.3" y2="31.4"/>
	</g>
	<line class="st0" x1="28.1" y1="18.5" x2="28.1" y2="24.5"/>
	<line class="st1" x1="28.1" y1="18.5" x2="24" y2="16.1"/>
	<line class="st1" x1="11.3" y1="18.3" x2="16.3" y2="15.6"/>
	<line class="st1" x1="11.3" y1="18.3" x2="11.3" y2="23.6"/>
	<line class="st1" x1="19.6" y1="32.2" x2="15.8" y2="29.9"/>
</g>
</svg>
