<?xml version="1.0" encoding="utf-8"?>
<!-- Generator: Adobe Illustrator 21.0.0, SVG Export Plug-In . SVG Version: 6.00 Build 0)  -->
<svg version="1.1" id="Layer_1" xmlns="http://www.w3.org/2000/svg" xmlns:xlink="http://www.w3.org/1999/xlink" x="0px" y="0px"
	 viewBox="0 0 1920 1024" style="enable-background:new 0 0 1920 1024;" xml:space="preserve">
<style type="text/css">
	.st0{fill:none;stroke:#5786AC;stroke-width:4;stroke-miterlimit:10;}
	.st1{fill:none;stroke:#5D8AAF;stroke-width:3.8654;stroke-miterlimit:10;}
	.st2{fill:none;stroke:#638FB1;stroke-width:3.7308;stroke-miterlimit:10;}
	.st3{fill:none;stroke:#6993B4;stroke-width:3.5962;stroke-miterlimit:10;}
	.st4{fill:none;stroke:#6F97B7;stroke-width:3.4615;stroke-miterlimit:10;}
	.st5{fill:none;stroke:#769CBA;stroke-width:3.3269;stroke-miterlimit:10;}
	.st6{fill:none;stroke:#7CA0BC;stroke-width:3.1923;stroke-miterlimit:10;}
	.st7{fill:none;stroke:#82A4BF;stroke-width:3.0577;stroke-miterlimit:10;}
	.st8{fill:none;stroke:#88A8C2;stroke-width:2.9231;stroke-miterlimit:10;}
	.st9{fill:none;stroke:#8EADC5;stroke-width:2.7885;stroke-miterlimit:10;}
	.st10{fill:none;stroke:#94B1C7;stroke-width:2.6538;stroke-miterlimit:10;}
	.st11{fill:none;stroke:#9AB5CA;stroke-width:2.5192;stroke-miterlimit:10;}
	.st12{fill:none;stroke:#A0BACD;stroke-width:2.3846;stroke-miterlimit:10;}
	.st13{fill:none;stroke:#A6BECF;stroke-width:2.25;stroke-miterlimit:10;}
	.st14{fill:none;stroke:#ADC2D2;stroke-width:2.1154;stroke-miterlimit:10;}
	.st15{fill:none;stroke:#B3C7D5;stroke-width:1.9808;stroke-miterlimit:10;}
	.st16{fill:none;stroke:#B9CBD8;stroke-width:1.8462;stroke-miterlimit:10;}
	.st17{fill:none;stroke:#BFCFDA;stroke-width:1.7115;stroke-miterlimit:10;}
	.st18{fill:none;stroke:#C5D4DD;stroke-width:1.5769;stroke-miterlimit:10;}
	.st19{fill:none;stroke:#CBD8E0;stroke-width:1.4423;stroke-miterlimit:10;}
	.st20{fill:none;stroke:#D1DCE3;stroke-width:1.3077;stroke-miterlimit:10;}
	.st21{fill:none;stroke:#D7E0E5;stroke-width:1.1731;stroke-miterlimit:10;}
	.st22{fill:none;stroke:#DEE5E8;stroke-width:1.0385;stroke-miterlimit:10;}
	.st23{fill:none;stroke:#E4E9EB;stroke-width:0.9038;stroke-miterlimit:10;}
	.st24{fill:none;stroke:#EAEDEE;stroke-width:0.7692;stroke-miterlimit:10;}
	.st25{fill:none;stroke:#F0F2F0;stroke-width:0.6346;stroke-miterlimit:10;}
	.st26{fill:none;stroke:#F6F6F3;stroke-width:0.5;stroke-miterlimit:10;}
	.st27{fill:none;stroke:#F6F6F3;stroke-width:4;stroke-miterlimit:10;}
	.st28{fill:none;stroke:#F2F3F1;stroke-width:3.9146;stroke-miterlimit:10;}
	.st29{fill:none;stroke:#EEF1F0;stroke-width:3.8293;stroke-miterlimit:10;}
	.st30{fill:none;stroke:#EAEEEE;stroke-width:3.7439;stroke-miterlimit:10;}
	.st31{fill:none;stroke:#E6EBEC;stroke-width:3.6585;stroke-miterlimit:10;}
	.st32{fill:none;stroke:#E3E8EA;stroke-width:3.5732;stroke-miterlimit:10;}
	.st33{fill:none;stroke:#DFE6E9;stroke-width:3.4878;stroke-miterlimit:10;}
	.st34{fill:none;stroke:#DBE3E7;stroke-width:3.4024;stroke-miterlimit:10;}
	.st35{fill:none;stroke:#D7E0E5;stroke-width:3.3171;stroke-miterlimit:10;}
	.st36{fill:none;stroke:#D3DDE3;stroke-width:3.2317;stroke-miterlimit:10;}
	.st37{fill:none;stroke:#CFDBE2;stroke-width:3.1463;stroke-miterlimit:10;}
	.st38{fill:none;stroke:#CBD8E0;stroke-width:3.061;stroke-miterlimit:10;}
	.st39{fill:none;stroke:#C7D5DE;stroke-width:2.9756;stroke-miterlimit:10;}
	.st40{fill:none;stroke:#C4D2DC;stroke-width:2.8902;stroke-miterlimit:10;}
	.st41{fill:none;stroke:#C0D0DB;stroke-width:2.8049;stroke-miterlimit:10;}
	.st42{fill:none;stroke:#BCCDD9;stroke-width:2.7195;stroke-miterlimit:10;}
	.st43{fill:none;stroke:#B8CAD7;stroke-width:2.6341;stroke-miterlimit:10;}
	.st44{fill:none;stroke:#B4C8D6;stroke-width:2.5488;stroke-miterlimit:10;}
	.st45{fill:none;stroke:#B0C5D4;stroke-width:2.4634;stroke-miterlimit:10;}
	.st46{fill:none;stroke:#ACC2D2;stroke-width:2.378;stroke-miterlimit:10;}
	.st47{fill:none;stroke:#A8BFD0;stroke-width:2.2927;stroke-miterlimit:10;}
	.st48{fill:none;stroke:#A5BDCF;stroke-width:2.2073;stroke-miterlimit:10;}
	.st49{fill:none;stroke:#A1BACD;stroke-width:2.122;stroke-miterlimit:10;}
	.st50{fill:none;stroke:#9DB7CB;stroke-width:2.0366;stroke-miterlimit:10;}
	.st51{fill:none;stroke:#99B4C9;stroke-width:1.9512;stroke-miterlimit:10;}
	.st52{fill:none;stroke:#95B2C8;stroke-width:1.8659;stroke-miterlimit:10;}
	.st53{fill:none;stroke:#91AFC6;stroke-width:1.7805;stroke-miterlimit:10;}
	.st54{fill:none;stroke:#8DACC4;stroke-width:1.6951;stroke-miterlimit:10;}
	.st55{fill:none;stroke:#89AAC3;stroke-width:1.6098;stroke-miterlimit:10;}
	.st56{fill:none;stroke:#86A7C1;stroke-width:1.5244;stroke-miterlimit:10;}
	.st57{fill:none;stroke:#82A4BF;stroke-width:1.439;stroke-miterlimit:10;}
	.st58{fill:none;stroke:#7EA1BD;stroke-width:1.3537;stroke-miterlimit:10;}
	.st59{fill:none;stroke:#7A9FBC;stroke-width:1.2683;stroke-miterlimit:10;}
	.st60{fill:none;stroke:#769CBA;stroke-width:1.1829;stroke-miterlimit:10;}
	.st61{fill:none;stroke:#7299B8;stroke-width:1.0976;stroke-miterlimit:10;}
	.st62{fill:none;stroke:#6E96B6;stroke-width:1.0122;stroke-miterlimit:10;}
	.st63{fill:none;stroke:#6A94B5;stroke-width:0.9268;stroke-miterlimit:10;}
	.st64{fill:none;stroke:#6791B3;stroke-width:0.8415;stroke-miterlimit:10;}
	.st65{fill:none;stroke:#638EB1;stroke-width:0.7561;stroke-miterlimit:10;}
	.st66{fill:none;stroke:#5F8BAF;stroke-width:0.6707;stroke-miterlimit:10;}
	.st67{fill:none;stroke:#5B89AE;stroke-width:0.5854;stroke-miterlimit:10;}
	.st68{fill:none;stroke:#5786AC;stroke-width:0.5;stroke-miterlimit:10;}
</style>
<g>
	<line class="st27" x1="1920" y1="1020" x2="0" y2="1020"/>
	<path class="st28" d="M1920,998.4c-17.5,0-1891,17.9-1920,9.6"/>
	<path class="st29" d="M1919.9,976.9c-35.1,0-1862,35.8-1919.9,19.1"/>
	<path class="st30" d="M1919.9,955.3C1867.3,955.3,86.9,1009,0,984"/>
	<path class="st31" d="M1919.9,933.7c-70.2,0-1804,71.6-1919.9,38.2"/>
	<path class="st32" d="M1919.8,912.2c-87.7,0-1775,89.5-1919.8,47.8"/>
	<path class="st33" d="M1919.8,890.6C1814.6,890.6,173.8,998,0,947.9"/>
	<path class="st34" d="M1919.8,869C1797,869,202.7,994.3,0,935.9"/>
	<path class="st35" d="M1919.7,847.5c-140.3,0-1688,143.2-1919.7,76.4"/>
	<path class="st36" d="M1919.7,825.9c-157.9,0-1659,161.1-1919.7,86"/>
	<path class="st37" d="M1919.7,804.3c-175.4,0-1630,179-1919.7,95.5"/>
	<path class="st38" d="M1919.6,782.8c-192.9,0-1601,196.9-1919.6,105.1"/>
	<path class="st39" d="M1919.6,761.2C1709.1,761.2,347.6,976,0,875.8"/>
	<path class="st40" d="M1919.6,739.6c-228,0-1543,232.7-1919.6,124.2"/>
	<path class="st41" d="M1919.5,718C1674,718,405.5,968.6,0,851.8"/>
	<path class="st42" d="M1919.5,696.5c-263.1,0-1485,268.5-1919.5,143.3"/>
	<path class="st43" d="M1919.5,674.9c-280.6,0-1456,286.4-1919.5,152.9"/>
	<path class="st44" d="M1919.4,653.3c-298.2,0-1427,304.3-1919.4,162.4"/>
	<path class="st45" d="M1919.4,631.8c-315.7,0-1398,322.2-1919.4,172"/>
	<path class="st46" d="M1919.4,610.2c-333.2,0-1369,340-1919.4,181.5"/>
	<path class="st47" d="M1919.3,588.6C1568.5,588.6,579.3,946.6,0,779.7"/>
	<path class="st48" d="M1919.3,567.1C1551,567.1,608.2,942.9,0,767.7"/>
	<path class="st49" d="M1919.3,545.5C1533.4,545.5,637.2,939.2,0,755.7"/>
	<path class="st50" d="M1919.2,523.9C1515.8,523.9,666.2,935.6,0,743.7"/>
	<path class="st51" d="M1919.2,502.4C1498.2,502.4,695.1,931.9,0,731.7"/>
	<path class="st52" d="M1919.1,480.8C1480.7,480.8,724.1,928.2,0,719.7"/>
	<path class="st53" d="M1919.1,459.2C1463.1,459.2,753,924.6,0,707.6"/>
	<path class="st54" d="M1919.1,437.7C1445.5,437.7,782,920.9,0,695.6"/>
	<path class="st55" d="M1919,416.1C1428,416.1,811,917.2,0,683.6"/>
	<path class="st56" d="M1919,394.5c-508.6,0-1079.1,519-1919,277.1"/>
	<path class="st57" d="M1919,373C1392.8,373,868.9,909.9,0,659.6"/>
	<path class="st58" d="M1918.9,351.4C1375.2,351.4,897.9,906.2,0,647.6"/>
	<path class="st59" d="M1918.9,329.8C1357.7,329.8,926.8,902.5,0,635.6"/>
	<path class="st60" d="M1918.9,308.3C1340.1,308.3,955.8,898.9,0,623.6"/>
	<path class="st61" d="M1918.8,286.7C1322.5,286.7,984.8,895.2,0,611.5"/>
	<path class="st62" d="M1918.8,265.1c-613.9,0-905.1,626.4-1918.8,334.4"/>
	<path class="st63" d="M1918.8,243.6c-631.4,0-876.1,644.3-1918.8,344"/>
	<path class="st64" d="M1918.7,222C1269.8,222,1071.6,884.2,0,575.5"/>
	<path class="st65" d="M1918.7,200.4c-666.5,0-818.1,680.1-1918.7,363.1"/>
	<path class="st66" d="M1918.7,178.8c-684,0-789.1,698-1918.7,372.6"/>
	<path class="st67" d="M1918.6,157.3c-701.6,0-760.1,715.9-1918.6,382.2"/>
	<path class="st68" d="M1918.6,135.7c-719.1,0-731.1,733.8-1918.6,391.7"/>
</g>
</svg>
