<svg height="600" viewBox="0 0 1920 600" width="1920" xmlns="http://www.w3.org/2000/svg" xmlns:xlink="http://www.w3.org/1999/xlink"><mask id="a" fill="#fff"><path d="m0 .77011538h1928.78421v139.65712562h-1928.78421z" fill="#fff" fill-rule="evenodd"/></mask><mask id="b" fill="#fff"><path d="m0 .06793186h1928.86762v146.45695514h-1928.86762z" fill="#fff" fill-rule="evenodd"/></mask><mask id="c" fill="#fff"><path d="m0 .14821519h1928.95065v153.64469881h-1928.95065z" fill="#fff" fill-rule="evenodd"/></mask><mask id="d" fill="#fff"><path d="m0 .33365403h1929.03034v161.80732997h-1929.03034z" fill="#fff" fill-rule="evenodd"/></mask><mask id="e" fill="#fff"><path d="m0 .59143213h1929.19343v176.39647887h-1929.19343z" fill="#fff" fill-rule="evenodd"/></mask><mask id="f" fill="#fff"><path d="m0 .84973583h1929.35987v190.67734517h-1929.35987z" fill="#fff" fill-rule="evenodd"/></mask><mask id="g" fill="#fff"><path d="m0 .23534189h1929.52259v204.96213311h-1929.52259z" fill="#fff" fill-rule="evenodd"/></mask><mask id="h" fill="#fff"><path d="m0 .41534399h1929.60599v213.22433301h-1929.60599z" fill="#fff" fill-rule="evenodd"/></mask><mask id="i" fill="#fff"><path d="m0 .59399031h1929.68568v220.32111369h-1929.68568z" fill="#fff" fill-rule="evenodd"/></mask><mask id="j" fill="#fff"><path d="m0 .67576249h1929.76871v227.80589151h-1929.76871z" fill="#fff" fill-rule="evenodd"/></mask><g fill="none" fill-rule="evenodd" transform="translate(-5)"><path d="m1927.61434 1.17755302-1927.61434-.00470081" stroke="#5886ac" stroke-width="2.982077"/><path d="m1927.61434 14.1024314c-37.69576 0-1902.2156766 7.0512157-1927.61434 7.0512157" stroke="#5e8aae" stroke-width="2.904543"/><path d="m1927.61434 24.6792549c-75.38817 0-1876.8118458 15.277634-1927.61434 15.277634" stroke="#648db1" stroke-width="2.828201"/><path d="m1927.61434 37.6064837c-113.07399 0-1851.4099693 22.3288497-1927.61434 22.3288497" stroke="#6b91b3" stroke-width="2.750667"/><path d="m1927.61434 49.3585099c-150.76359 0-1826.014242 29.3800654-1927.61434 29.3800654" stroke="#7094b6" stroke-width="2.674326"/><path d="m1927.61434 61.110536c-188.44317 0-1800.620273 36.4312811-1927.61434 36.4312811" stroke="#7798b8" stroke-width="2.596792"/><path d="m1927.61434 74.0377648c-226.12298 0-1775.228647 43.4824972-1927.61434 43.4824972" stroke="#7c9bbb" stroke-width="2.520451"/><path d="m1927.61434 84.6145883c-263.8028 0-1749.839511 51.7089147-1927.61434 51.7089147" stroke="#839fbd" stroke-width="2.442917"/><path d="m1927.61434 97.5418171c-301.47303 0-1724.45184 58.7628579-1927.61434 58.7601309" stroke="#88a2c0" stroke-width="2.366576"/><path d="m1927.61434 109.293843c-339.14263 0-1699.063392 65.811347-1927.61434 65.811347" stroke="#8ea6c2" stroke-width="2.289042"/><path d="m1927.61434 121.045869c-376.80962-.002748-1673.684112 74.037765-1927.61434 74.037765" stroke="#93aac5" stroke-width="2.212701"/><path d="m1927.61434 132.797896c-414.47342-.002737-1648.299567 81.091717-1927.61434 81.08898" stroke="#98adc7" stroke-width="2.135167"/><path d="m1927.61434 145.725124c-452.13403 0-1622.920876 88.140197-1927.61434 88.140197" stroke="#9eb1ca" stroke-width="2.058826"/><path d="m1928.80717 157.477151c-490.09085-.002719-1598.532909 95.191411-1928.80717 95.191411" stroke="#a3b5cd" stroke-width="1.981292"/><path d="m1928.80717 169.229177c-527.76839-.002712-1573.142809 102.242627-1928.80717 102.242627" stroke="#a8b8cf" stroke-width="1.904951"/><path d="m1928.80717 180.981203c-565.44537 0-1547.75188 110.47178-1928.80717 110.469046" stroke="#adbcd2" stroke-width="1.827417"/><path d="m1928.80717 192.733229c-603.11393-.002727-1522.365341 117.520262-1928.80717 117.520262" stroke="#b3c0d4" stroke-width="1.751075"/><path d="m1928.80717 205.660458c-640.78068-.002721-1496.978804 124.571477-1928.80717 124.571477" stroke="#b8c4d7" stroke-width="1.673541"/><path d="m1928.80717 216.237281c-678.44171 0-1471.601047 132.800635-1928.80717 132.797896" stroke="#bdc7d9" stroke-width="1.5972"/><path d="m1928.78421.77011538c-716.09445-.00272885-1446.20025 139.65985462-1928.78717536 139.65712562" mask="url(#a)" stroke="#c2cbdc" stroke-width="1.519666" transform="translate(0 227.989307)"/><path d="m1928.86762.06793186c-753.78423-.00271861-1420.88347 146.45695514-1928.86873201 146.45695514" mask="url(#b)" stroke="#c7cfdf" stroke-width="1.443325" transform="translate(0 240.916536)"/><path d="m1928.95065.14821519c-791.474 0-1395.570388 153.64741481-1928.95398603 153.64469881" mask="url(#c)" stroke="#cbd3e1" stroke-width="1.365791" transform="translate(0 252.668562)"/><path d="m1929.03034.33365403c-829.16376-.00273051-1370.249888 161.81006097-1929.03182268 161.80732997" mask="url(#d)" stroke="#d0d7e4" stroke-width="1.28945" transform="translate(0 264.420589)"/><path d="m1928.80717 276.172615c-866.71593-.002732-1344.719623 169.229176-1928.80717 169.229176" stroke="#d5dbe6" stroke-width="1.211916"/><path d="m1929.19343.59143213c-904.53958-.0054573-1319.616305 176.39647887-1929.19491268 176.39647887" mask="url(#e)" stroke="#dadfe9" stroke-width="1.135575" transform="translate(0 287.924641)"/><path d="m1928.80717 300.85187c-942.000157-.002723-1293.984684 183.33433-1928.80717 183.331608" stroke="#dfe3ec" stroke-width="1.058041"/><path d="m1929.35987.84973583c-979.922831-.00272264-1268.982736 190.68006717-1929.36172335 190.67734517" mask="url(#f)" stroke="#e3e7ee" stroke-width=".9817" transform="translate(0 311.428693)"/><path d="m1930 324.355922c-1017.90447-.005462-1244.027188 198.609242-1930 198.609242" stroke="#e8ebf1" stroke-width=".904166"/><path d="m1929.52259.23534189c-1055.298655-.00271757-1218.345447 204.96485111-1929.52481402 204.96213311" mask="url(#g)" stroke="#edeff4" stroke-width=".827824" transform="translate(0 337.283151)"/><path d="m1929.60599.41534399c-1092.988421-.00272962-1193.028658 213.22706201-1929.60636067 213.22433301" mask="url(#h)" stroke="#f1f3f6" stroke-width=".75029" transform="translate(0 347.859974)"/><path d="m1929.68568.59399031c-1130.678184-.00545289-1167.711864 220.32384069-1929.68790402 220.32111369" mask="url(#i)" stroke="#f6f7f8" stroke-width=".673949" transform="translate(0 359.612)"/><path d="m1929.76871.67576249c-1168.367951-.00272815-1142.395075 227.80862051-1929.76945134 227.80589151" mask="url(#j)" stroke="#fafafa" stroke-width=".596415" transform="translate(0 371.364027)"/></g></svg>