<?xml version="1.0" encoding="utf-8"?>
<!-- Generator: Adobe Illustrator 21.0.0, SVG Export Plug-In . SVG Version: 6.00 Build 0)  -->
<svg version="1.1" id="Layer_1" xmlns="http://www.w3.org/2000/svg" xmlns:xlink="http://www.w3.org/1999/xlink" x="0px" y="0px"
	 viewBox="0 0 1920 680" style="enable-background:new 0 0 1920 680;" xml:space="preserve">
<style type="text/css">
	.st0{filter:url(#Adobe_OpacityMaskFilter);}
	.st1{fill:#FFFFFF;}
	.st2{mask:url(#mask-2);fill:none;stroke:#FBFBFB;stroke-width:2.9296;}
	.st3{filter:url(#Adobe_OpacityMaskFilter_1_);}
	.st4{mask:url(#mask-4);fill:none;stroke:#FBFBFB;stroke-width:2.8546;}
	.st5{filter:url(#Adobe_OpacityMaskFilter_2_);}
	.st6{mask:url(#mask-6);fill:none;stroke:#FBFBFB;stroke-width:2.7784;}
	.st7{filter:url(#Adobe_OpacityMaskFilter_3_);}
	.st8{mask:url(#mask-8);fill:none;stroke:#FBFBFB;stroke-width:2.7034;}
	.st9{filter:url(#Adobe_OpacityMaskFilter_4_);}
	.st10{mask:url(#mask-10);fill:none;stroke:#FBFBFB;stroke-width:2.6272;}
	.st11{filter:url(#Adobe_OpacityMaskFilter_5_);}
	.st12{mask:url(#mask-12);fill:none;stroke:#FBFBFB;stroke-width:2.5522;}
	.st13{filter:url(#Adobe_OpacityMaskFilter_6_);}
	.st14{mask:url(#mask-14);fill:none;stroke:#FBFBFB;stroke-width:2.4761;}
	.st15{filter:url(#Adobe_OpacityMaskFilter_7_);}
	.st16{mask:url(#mask-16);fill:none;stroke:#FBFBFB;stroke-width:2.4011;}
	.st17{filter:url(#Adobe_OpacityMaskFilter_8_);}
	.st18{mask:url(#mask-18);fill:none;stroke:#FBFBFB;stroke-width:2.3249;}
	.st19{filter:url(#Adobe_OpacityMaskFilter_9_);}
	.st20{mask:url(#mask-20);fill:none;stroke:#FBFBFB;stroke-width:2.2499;}
	.st21{filter:url(#Adobe_OpacityMaskFilter_10_);}
	.st22{mask:url(#mask-22);fill:none;stroke:#FBFBFB;stroke-width:2.1737;}
	.st23{filter:url(#Adobe_OpacityMaskFilter_11_);}
	.st24{mask:url(#mask-24);fill:none;stroke:#FBFBFB;stroke-width:2.0987;}
	.st25{filter:url(#Adobe_OpacityMaskFilter_12_);}
	.st26{mask:url(#mask-26);fill:none;stroke:#FBFBFB;stroke-width:2.0226;}
	.st27{filter:url(#Adobe_OpacityMaskFilter_13_);}
	.st28{mask:url(#mask-28);fill:none;stroke:#FBFBFB;stroke-width:1.9476;}
	.st29{filter:url(#Adobe_OpacityMaskFilter_14_);}
	.st30{mask:url(#mask-30);fill:none;stroke:#FBFBFB;stroke-width:1.8714;}
	.st31{filter:url(#Adobe_OpacityMaskFilter_15_);}
	.st32{mask:url(#mask-32);fill:none;stroke:#FBFBFA;stroke-width:1.7964;}
	.st33{filter:url(#Adobe_OpacityMaskFilter_16_);}
	.st34{mask:url(#mask-34);fill:none;stroke:#FBFBFB;stroke-width:1.7202;}
	.st35{filter:url(#Adobe_OpacityMaskFilter_17_);}
	.st36{mask:url(#mask-36);fill:none;stroke:#FBFBFB;stroke-width:1.6452;}
	.st37{filter:url(#Adobe_OpacityMaskFilter_18_);}
	.st38{mask:url(#mask-38);fill:none;stroke:#FBFAFA;stroke-width:1.5691;}
	.st39{filter:url(#Adobe_OpacityMaskFilter_19_);}
	.st40{mask:url(#mask-40);fill:none;stroke:#FBFBFB;stroke-width:1.4941;}
	.st41{filter:url(#Adobe_OpacityMaskFilter_20_);}
	.st42{mask:url(#mask-42);fill:none;stroke:#FBFBFA;stroke-width:1.4179;}
	.st43{filter:url(#Adobe_OpacityMaskFilter_21_);}
	.st44{mask:url(#mask-44);fill:none;stroke:#FAFAFA;stroke-width:1.3429;}
	.st45{filter:url(#Adobe_OpacityMaskFilter_22_);}
	.st46{mask:url(#mask-46);fill:none;stroke:#FBFBFB;stroke-width:1.2667;}
	.st47{filter:url(#Adobe_OpacityMaskFilter_23_);}
	.st48{mask:url(#mask-48);fill:none;stroke:#FAFAFA;stroke-width:1.1917;}
	.st49{filter:url(#Adobe_OpacityMaskFilter_24_);}
	.st50{mask:url(#mask-50);fill:none;stroke:#FBFBFA;stroke-width:1.1156;}
	.st51{filter:url(#Adobe_OpacityMaskFilter_25_);}
	.st52{mask:url(#mask-52);fill:none;stroke:#FBFBFA;stroke-width:1.0406;}
	.st53{filter:url(#Adobe_OpacityMaskFilter_26_);}
	.st54{mask:url(#mask-54);fill:none;stroke:#FBFAFA;stroke-width:0.9644;}
	.st55{filter:url(#Adobe_OpacityMaskFilter_27_);}
	.st56{mask:url(#mask-56);fill:none;stroke:#FBFBFA;stroke-width:0.8894;}
	.st57{filter:url(#Adobe_OpacityMaskFilter_28_);}
	.st58{mask:url(#mask-58);fill:none;stroke:#FBFAFA;stroke-width:0.8132;}
	.st59{filter:url(#Adobe_OpacityMaskFilter_29_);}
	.st60{mask:url(#mask-60);fill:none;stroke:#FAFAFA;stroke-width:0.7383;}
	.st61{filter:url(#Adobe_OpacityMaskFilter_30_);}
	.st62{mask:url(#mask-62);fill:none;stroke:#FAFAFA;stroke-width:0.6621;}
	.st63{filter:url(#Adobe_OpacityMaskFilter_31_);}
	.st64{mask:url(#mask-64);fill:none;stroke:#FAFAFA;stroke-width:0.5871;}
</style>
<defs>
	<filter id="Adobe_OpacityMaskFilter" filterUnits="userSpaceOnUse" x="-5" y="676.4" width="1929.2" height="2.9">
		<feColorMatrix  type="matrix" values="1 0 0 0 0  0 1 0 0 0  0 0 1 0 0  0 0 0 1 0"/>
	</filter>
</defs>
<mask maskUnits="userSpaceOnUse" x="-5" y="676.4" width="1929.2" height="2.9" id="mask-2">
	<g class="st0">
		<polygon id="path-1" class="st1" points="-5,676.7 1924.2,676.7 1924.2,679.1 -5,679.1 		"/>
	</g>
</mask>
<path id="Stroke-1" class="st2" d="M1924.2,677.9L-5,677.9"/>
<defs>
	<filter id="Adobe_OpacityMaskFilter_1_" filterUnits="userSpaceOnUse" x="-5" y="654.6" width="1929.2" height="15.8">
		<feColorMatrix  type="matrix" values="1 0 0 0 0  0 1 0 0 0  0 0 1 0 0  0 0 0 1 0"/>
	</filter>
</defs>
<mask maskUnits="userSpaceOnUse" x="-5" y="654.6" width="1929.2" height="15.8" id="mask-4">
	<g class="st3">
		<polygon id="path-3" class="st1" points="-5,656 1924.2,656 1924.2,669 -5,669 		"/>
	</g>
</mask>
<path id="Stroke-4" class="st4" d="M1924.2,656C1886.5,656,20.4,669-5,669"/>
<defs>
	<filter id="Adobe_OpacityMaskFilter_2_" filterUnits="userSpaceOnUse" x="-5" y="632.5" width="1929.2" height="28">
		<feColorMatrix  type="matrix" values="1 0 0 0 0  0 1 0 0 0  0 0 1 0 0  0 0 0 1 0"/>
	</filter>
</defs>
<mask maskUnits="userSpaceOnUse" x="-5" y="632.5" width="1929.2" height="28" id="mask-6">
	<g class="st5">
		<polygon id="path-5" class="st1" points="-5,633.9 1924.2,633.9 1924.2,659.1 -5,659.1 		"/>
	</g>
</mask>
<path id="Stroke-7" class="st6" d="M1924.2,633.9c-75.4,0-1878.4,25.2-1929.2,25.2"/>
<defs>
	<filter id="Adobe_OpacityMaskFilter_3_" filterUnits="userSpaceOnUse" x="-5" y="610.5" width="1929.2" height="40.1">
		<feColorMatrix  type="matrix" values="1 0 0 0 0  0 1 0 0 0  0 0 1 0 0  0 0 0 1 0"/>
	</filter>
</defs>
<mask maskUnits="userSpaceOnUse" x="-5" y="610.5" width="1929.2" height="40.1" id="mask-8">
	<g class="st7">
		<polygon id="path-7" class="st1" points="-5,611.8 1924.2,611.8 1924.2,649.2 -5,649.2 		"/>
	</g>
</mask>
<path id="Stroke-10" class="st8" d="M1924.2,611.8c-113,0-1853,37.4-1929.2,37.4"/>
<defs>
	<filter id="Adobe_OpacityMaskFilter_4_" filterUnits="userSpaceOnUse" x="-5" y="588.5" width="1929.2" height="53.3">
		<feColorMatrix  type="matrix" values="1 0 0 0 0  0 1 0 0 0  0 0 1 0 0  0 0 0 1 0"/>
	</filter>
</defs>
<mask maskUnits="userSpaceOnUse" x="-5" y="588.5" width="1929.2" height="53.3" id="mask-10">
	<g class="st9">
		<polygon id="path-9" class="st1" points="-5,589.8 1924.2,589.8 1924.2,640.4 -5,640.4 		"/>
	</g>
</mask>
<path id="Stroke-13" class="st10" d="M1924.2,589.8C1773.5,589.8,96.6,640.4-5,640.4"/>
<defs>
	<filter id="Adobe_OpacityMaskFilter_5_" filterUnits="userSpaceOnUse" x="-5" y="566.5" width="1929.2" height="66.3">
		<feColorMatrix  type="matrix" values="1 0 0 0 0  0 1 0 0 0  0 0 1 0 0  0 0 0 1 0"/>
	</filter>
</defs>
<mask maskUnits="userSpaceOnUse" x="-5" y="566.5" width="1929.2" height="66.3" id="mask-12">
	<g class="st11">
		<polygon id="path-11" class="st1" points="-5,567.8 1924.2,567.8 1924.2,631.6 -5,631.6 		"/>
	</g>
</mask>
<path id="Stroke-16" class="st12" d="M1924.2,567.8C1735.8,567.8,122,631.6-5,631.6"/>
<defs>
	<filter id="Adobe_OpacityMaskFilter_6_" filterUnits="userSpaceOnUse" x="-5" y="545.7" width="1929.2" height="78.4">
		<feColorMatrix  type="matrix" values="1 0 0 0 0  0 1 0 0 0  0 0 1 0 0  0 0 0 1 0"/>
	</filter>
</defs>
<mask maskUnits="userSpaceOnUse" x="-5" y="545.7" width="1929.2" height="78.4" id="mask-14">
	<g class="st13">
		<polygon id="path-13" class="st1" points="-5,546.9 1924.2,546.9 1924.2,622.8 -5,622.8 		"/>
	</g>
</mask>
<path id="Stroke-19" class="st14" d="M1924.2,546.9c-226.1,0-1776.9,75.9-1929.2,75.9"/>
<defs>
	<filter id="Adobe_OpacityMaskFilter_7_" filterUnits="userSpaceOnUse" x="-5" y="523.7" width="1929.2" height="90.4">
		<feColorMatrix  type="matrix" values="1 0 0 0 0  0 1 0 0 0  0 0 1 0 0  0 0 0 1 0"/>
	</filter>
</defs>
<mask maskUnits="userSpaceOnUse" x="-5" y="523.7" width="1929.2" height="90.4" id="mask-16">
	<g class="st15">
		<polygon id="path-15" class="st1" points="-5,524.9 1924.2,524.9 1924.2,612.9 -5,612.9 		"/>
	</g>
</mask>
<path id="Stroke-22" class="st16" d="M1924.2,524.9c-263.8,0-1751.5,88-1929.2,88"/>
<defs>
	<filter id="Adobe_OpacityMaskFilter_8_" filterUnits="userSpaceOnUse" x="-5" y="501.7" width="1929.2" height="103.6">
		<feColorMatrix  type="matrix" values="1 0 0 0 0  0 1 0 0 0  0 0 1 0 0  0 0 0 1 0"/>
	</filter>
</defs>
<mask maskUnits="userSpaceOnUse" x="-5" y="501.7" width="1929.2" height="103.6" id="mask-18">
	<g class="st17">
		<polygon id="path-17" class="st1" points="-5,502.9 1924.2,502.9 1924.2,604.2 -5,604.2 		"/>
	</g>
</mask>
<path id="Stroke-25" class="st18" d="M1924.2,502.9C1622.8,502.9,198.1,604.2-5,604.2"/>
<defs>
	<filter id="Adobe_OpacityMaskFilter_9_" filterUnits="userSpaceOnUse" x="-5" y="479.7" width="1929.2" height="115.5">
		<feColorMatrix  type="matrix" values="1 0 0 0 0  0 1 0 0 0  0 0 1 0 0  0 0 0 1 0"/>
	</filter>
</defs>
<mask maskUnits="userSpaceOnUse" x="-5" y="479.7" width="1929.2" height="115.5" id="mask-20">
	<g class="st19">
		<polygon id="path-19" class="st1" points="-5,480.9 1924.2,480.9 1924.2,594.1 -5,594.1 		"/>
	</g>
</mask>
<path id="Stroke-28" class="st20" d="M1924.2,480.9C1585.1,480.9,223.5,594.1-5,594.1"/>
<defs>
	<filter id="Adobe_OpacityMaskFilter_10_" filterUnits="userSpaceOnUse" x="-5" y="457.8" width="1929.2" height="128.7">
		<feColorMatrix  type="matrix" values="1 0 0 0 0  0 1 0 0 0  0 0 1 0 0  0 0 0 1 0"/>
	</filter>
</defs>
<mask maskUnits="userSpaceOnUse" x="-5" y="457.8" width="1929.2" height="128.7" id="mask-22">
	<g class="st21">
		<polygon id="path-21" class="st1" points="-5,458.8 1924.2,458.8 1924.2,585.4 -5,585.4 		"/>
	</g>
</mask>
<path id="Stroke-31" class="st22" d="M1924.2,458.8C1547.4,458.8,248.9,585.4-5,585.4"/>
<defs>
	<filter id="Adobe_OpacityMaskFilter_11_" filterUnits="userSpaceOnUse" x="-5" y="436.9" width="1929.2" height="140.8">
		<feColorMatrix  type="matrix" values="1 0 0 0 0  0 1 0 0 0  0 0 1 0 0  0 0 0 1 0"/>
	</filter>
</defs>
<mask maskUnits="userSpaceOnUse" x="-5" y="436.9" width="1929.2" height="140.8" id="mask-24">
	<g class="st23">
		<polygon id="path-23" class="st1" points="-5,438 1924.2,438 1924.2,576.7 -5,576.7 		"/>
	</g>
</mask>
<path id="Stroke-34" class="st24" d="M1924.2,438C1509.8,438,274.3,576.6-5,576.7"/>
<defs>
	<filter id="Adobe_OpacityMaskFilter_12_" filterUnits="userSpaceOnUse" x="-5" y="415" width="1929.2" height="153.9">
		<feColorMatrix  type="matrix" values="1 0 0 0 0  0 1 0 0 0  0 0 1 0 0  0 0 0 1 0"/>
	</filter>
</defs>
<mask maskUnits="userSpaceOnUse" x="-5" y="415" width="1929.2" height="153.9" id="mask-26">
	<g class="st25">
		<polygon id="path-25" class="st1" points="-5,416 1924.2,416 1924.2,567.9 -5,567.9 		"/>
	</g>
</mask>
<path id="Stroke-37" class="st26" d="M1924.2,416C1472.1,416,299.7,567.9-5,567.9"/>
<defs>
	<filter id="Adobe_OpacityMaskFilter_13_" filterUnits="userSpaceOnUse" x="-5" y="392.9" width="1929.2" height="166">
		<feColorMatrix  type="matrix" values="1 0 0 0 0  0 1 0 0 0  0 0 1 0 0  0 0 0 1 0"/>
	</filter>
</defs>
<mask maskUnits="userSpaceOnUse" x="-5" y="392.9" width="1929.2" height="166" id="mask-28">
	<g class="st27">
		<polygon id="path-27" class="st1" points="-5,393.8 1924.2,393.8 1924.2,557.9 -5,557.9 		"/>
	</g>
</mask>
<path id="Stroke-40" class="st28" d="M1924.2,393.8c-489.8,0-1599.1,164-1929.2,164"/>
<defs>
	<filter id="Adobe_OpacityMaskFilter_14_" filterUnits="userSpaceOnUse" x="-5" y="370.9" width="1929.2" height="179.2">
		<feColorMatrix  type="matrix" values="1 0 0 0 0  0 1 0 0 0  0 0 1 0 0  0 0 0 1 0"/>
	</filter>
</defs>
<mask maskUnits="userSpaceOnUse" x="-5" y="370.9" width="1929.2" height="179.2" id="mask-30">
	<g class="st29">
		<polygon id="path-29" class="st1" points="-5,371.8 1924.2,371.8 1924.2,549.1 -5,549.1 		"/>
	</g>
</mask>
<path id="Stroke-43" class="st30" d="M1924.2,371.8C1396.7,371.8,350.5,549.1-5,549.1"/>
<defs>
	<filter id="Adobe_OpacityMaskFilter_15_" filterUnits="userSpaceOnUse" x="-5" y="348.9" width="1929.2" height="191.2">
		<feColorMatrix  type="matrix" values="1 0 0 0 0  0 1 0 0 0  0 0 1 0 0  0 0 0 1 0"/>
	</filter>
</defs>
<mask maskUnits="userSpaceOnUse" x="-5" y="348.9" width="1929.2" height="191.2" id="mask-32">
	<g class="st31">
		<polygon id="path-31" class="st1" points="-5,349.8 1924.2,349.8 1924.2,539.2 -5,539.2 		"/>
	</g>
</mask>
<path id="Stroke-46" class="st32" d="M1924.2,349.8C1359,349.8,375.9,539.2-5,539.2"/>
<defs>
	<filter id="Adobe_OpacityMaskFilter_16_" filterUnits="userSpaceOnUse" x="-5" y="326.9" width="1929.2" height="204.4">
		<feColorMatrix  type="matrix" values="1 0 0 0 0  0 1 0 0 0  0 0 1 0 0  0 0 0 1 0"/>
	</filter>
</defs>
<mask maskUnits="userSpaceOnUse" x="-5" y="326.9" width="1929.2" height="204.4" id="mask-34">
	<g class="st33">
		<polygon id="path-33" class="st1" points="-5,327.8 1924.2,327.8 1924.2,530.5 -5,530.5 		"/>
	</g>
</mask>
<path id="Stroke-49" class="st34" d="M1924.2,327.8c-602.9,0-1523,202.7-1929.2,202.7"/>
<defs>
	<filter id="Adobe_OpacityMaskFilter_17_" filterUnits="userSpaceOnUse" x="-5" y="306.1" width="1929.2" height="216.3">
		<feColorMatrix  type="matrix" values="1 0 0 0 0  0 1 0 0 0  0 0 1 0 0  0 0 0 1 0"/>
	</filter>
</defs>
<mask maskUnits="userSpaceOnUse" x="-5" y="306.1" width="1929.2" height="216.3" id="mask-36">
	<g class="st35">
		<polygon id="path-35" class="st1" points="-5,306.9 1924.2,306.9 1924.2,521.6 -5,521.6 		"/>
	</g>
</mask>
<path id="Stroke-52" class="st36" d="M1924.2,306.9C1283.7,306.9,426.7,521.6-5,521.6"/>
<defs>
	<filter id="Adobe_OpacityMaskFilter_18_" filterUnits="userSpaceOnUse" x="-5" y="284.1" width="1929.2" height="229.5">
		<feColorMatrix  type="matrix" values="1 0 0 0 0  0 1 0 0 0  0 0 1 0 0  0 0 0 1 0"/>
	</filter>
</defs>
<mask maskUnits="userSpaceOnUse" x="-5" y="284.1" width="1929.2" height="229.5" id="mask-38">
	<g class="st37">
		<polygon id="path-37" class="st1" points="-5,284.9 1924.2,284.9 1924.2,512.9 -5,512.9 		"/>
	</g>
</mask>
<path id="Stroke-55" class="st38" d="M1924.2,284.9C1246,284.9,452.1,512.9-5,512.9"/>
<defs>
	<filter id="Adobe_OpacityMaskFilter_19_" filterUnits="userSpaceOnUse" x="-5" y="262.2" width="1929.2" height="241.5">
		<feColorMatrix  type="matrix" values="1 0 0 0 0  0 1 0 0 0  0 0 1 0 0  0 0 0 1 0"/>
	</filter>
</defs>
<mask maskUnits="userSpaceOnUse" x="-5" y="262.2" width="1929.2" height="241.5" id="mask-40">
	<g class="st39">
		<polygon id="path-39" class="st1" points="-5,262.9 1924.2,262.9 1924.2,502.9 -5,502.9 		"/>
	</g>
</mask>
<path id="Stroke-58" class="st40" d="M1924.2,262.9c-715.9,0-1446.8,240-1929.2,240"/>
<defs>
	<filter id="Adobe_OpacityMaskFilter_20_" filterUnits="userSpaceOnUse" x="-5" y="240.2" width="1929.2" height="254.7">
		<feColorMatrix  type="matrix" values="1 0 0 0 0  0 1 0 0 0  0 0 1 0 0  0 0 0 1 0"/>
	</filter>
</defs>
<mask maskUnits="userSpaceOnUse" x="-5" y="240.2" width="1929.2" height="254.7" id="mask-42">
	<g class="st41">
		<polygon id="path-41" class="st1" points="-5,240.9 1924.2,240.9 1924.2,494.2 -5,494.2 		"/>
	</g>
</mask>
<path id="Stroke-61" class="st42" d="M1924.2,240.9C1170.7,240.9,502.8,494.2-5,494.2"/>
<defs>
	<filter id="Adobe_OpacityMaskFilter_21_" filterUnits="userSpaceOnUse" x="-5" y="218.2" width="1929.2" height="266.6">
		<feColorMatrix  type="matrix" values="1 0 0 0 0  0 1 0 0 0  0 0 1 0 0  0 0 0 1 0"/>
	</filter>
</defs>
<mask maskUnits="userSpaceOnUse" x="-5" y="218.2" width="1929.2" height="266.6" id="mask-44">
	<g class="st43">
		<polygon id="path-43" class="st1" points="-5,218.9 1924.2,218.9 1924.2,484.2 -5,484.2 		"/>
	</g>
</mask>
<path id="Stroke-64" class="st44" d="M1924.2,218.9C1133,218.9,528.2,484.2-5,484.2"/>
<defs>
	<filter id="Adobe_OpacityMaskFilter_22_" filterUnits="userSpaceOnUse" x="-5" y="196.2" width="1929.2" height="279.8">
		<feColorMatrix  type="matrix" values="1 0 0 0 0  0 1 0 0 0  0 0 1 0 0  0 0 0 1 0"/>
	</filter>
</defs>
<mask maskUnits="userSpaceOnUse" x="-5" y="196.2" width="1929.2" height="279.8" id="mask-46">
	<g class="st45">
		<polygon id="path-45" class="st1" points="-5,196.8 1924.2,196.8 1924.2,475.4 -5,475.4 		"/>
	</g>
</mask>
<path id="Stroke-67" class="st46" d="M1924.2,196.8C1095.3,196.8,553.6,475.4-5,475.4"/>
<defs>
	<filter id="Adobe_OpacityMaskFilter_23_" filterUnits="userSpaceOnUse" x="-5" y="175.3" width="1929.2" height="292">
		<feColorMatrix  type="matrix" values="1 0 0 0 0  0 1 0 0 0  0 0 1 0 0  0 0 0 1 0"/>
	</filter>
</defs>
<mask maskUnits="userSpaceOnUse" x="-5" y="175.3" width="1929.2" height="292" id="mask-48">
	<g class="st47">
		<polygon id="path-47" class="st1" points="-5,175.9 1924.2,175.9 1924.2,466.7 -5,466.7 		"/>
	</g>
</mask>
<path id="Stroke-70" class="st48" d="M1924.2,175.9C1057.6,175.9,579,466.7-5,466.7"/>
<defs>
	<filter id="Adobe_OpacityMaskFilter_24_" filterUnits="userSpaceOnUse" x="-5" y="152.1" width="1929.2" height="305.2">
		<feColorMatrix  type="matrix" values="1 0 0 0 0  0 1 0 0 0  0 0 1 0 0  0 0 0 1 0"/>
	</filter>
</defs>
<mask maskUnits="userSpaceOnUse" x="-5" y="152.1" width="1929.2" height="305.2" id="mask-50">
	<g class="st49">
		<polygon id="path-49" class="st1" points="-5,152.7 1924.2,152.7 1924.2,456.7 -5,456.7 		"/>
	</g>
</mask>
<path id="Stroke-73" class="st50" d="M1924.2,152.7C1019.9,152.7,604.4,456.7-5,456.7"/>
<defs>
	<filter id="Adobe_OpacityMaskFilter_25_" filterUnits="userSpaceOnUse" x="-5" y="131.3" width="1929.2" height="317.1">
		<feColorMatrix  type="matrix" values="1 0 0 0 0  0 1 0 0 0  0 0 1 0 0  0 0 0 1 0"/>
	</filter>
</defs>
<mask maskUnits="userSpaceOnUse" x="-5" y="131.3" width="1929.2" height="317.1" id="mask-52">
	<g class="st51">
		<polygon id="path-51" class="st1" points="-5,131.8 1924.2,131.8 1924.2,447.9 -5,447.9 		"/>
	</g>
</mask>
<path id="Stroke-76" class="st52" d="M1924.2,131.8c-942,0-1294.4,316-1929.2,316"/>
<defs>
	<filter id="Adobe_OpacityMaskFilter_26_" filterUnits="userSpaceOnUse" x="-5" y="109.3" width="1929.2" height="330.3">
		<feColorMatrix  type="matrix" values="1 0 0 0 0  0 1 0 0 0  0 0 1 0 0  0 0 0 1 0"/>
	</filter>
</defs>
<mask maskUnits="userSpaceOnUse" x="-5" y="109.3" width="1929.2" height="330.3" id="mask-54">
	<g class="st53">
		<polygon id="path-53" class="st1" points="-5,109.8 1924.2,109.8 1924.2,439.1 -5,439.1 		"/>
	</g>
</mask>
<path id="Stroke-79" class="st54" d="M1924.2,109.8C944.6,109.8,655.2,439.1-5,439.1"/>
<defs>
	<filter id="Adobe_OpacityMaskFilter_27_" filterUnits="userSpaceOnUse" x="-5" y="87.4" width="1929.2" height="342.3">
		<feColorMatrix  type="matrix" values="1 0 0 0 0  0 1 0 0 0  0 0 1 0 0  0 0 0 1 0"/>
	</filter>
</defs>
<mask maskUnits="userSpaceOnUse" x="-5" y="87.4" width="1929.2" height="342.3" id="mask-56">
	<g class="st55">
		<polygon id="path-55" class="st1" points="-5,87.8 1924.2,87.8 1924.2,429.2 -5,429.2 		"/>
	</g>
</mask>
<path id="Stroke-82" class="st56" d="M1924.2,87.8C906.9,87.8,680.6,429.2-5,429.2"/>
<defs>
	<filter id="Adobe_OpacityMaskFilter_28_" filterUnits="userSpaceOnUse" x="-5" y="65.4" width="1929.2" height="355.5">
		<feColorMatrix  type="matrix" values="1 0 0 0 0  0 1 0 0 0  0 0 1 0 0  0 0 0 1 0"/>
	</filter>
</defs>
<mask maskUnits="userSpaceOnUse" x="-5" y="65.4" width="1929.2" height="355.5" id="mask-58">
	<g class="st57">
		<polygon id="path-57" class="st1" points="-5,65.8 1924.2,65.8 1924.2,420.5 -5,420.5 		"/>
	</g>
</mask>
<path id="Stroke-85" class="st58" d="M1924.2,65.8C869.2,65.8,706,420.5-5,420.5"/>
<defs>
	<filter id="Adobe_OpacityMaskFilter_29_" filterUnits="userSpaceOnUse" x="-5" y="44.6" width="1929.2" height="367.4">
		<feColorMatrix  type="matrix" values="1 0 0 0 0  0 1 0 0 0  0 0 1 0 0  0 0 0 1 0"/>
	</filter>
</defs>
<mask maskUnits="userSpaceOnUse" x="-5" y="44.6" width="1929.2" height="367.4" id="mask-60">
	<g class="st59">
		<polygon id="path-59" class="st1" points="-5,44.9 1924.2,44.9 1924.2,411.6 -5,411.6 		"/>
	</g>
</mask>
<path id="Stroke-88" class="st60" d="M1924.2,44.9C831.5,44.9,731.4,411.6-5,411.6"/>
<defs>
	<filter id="Adobe_OpacityMaskFilter_30_" filterUnits="userSpaceOnUse" x="-5" y="21.4" width="1929.2" height="380.6">
		<feColorMatrix  type="matrix" values="1 0 0 0 0  0 1 0 0 0  0 0 1 0 0  0 0 0 1 0"/>
	</filter>
</defs>
<mask maskUnits="userSpaceOnUse" x="-5" y="21.4" width="1929.2" height="380.6" id="mask-62">
	<g class="st61">
		<polygon id="path-61" class="st1" points="-5,21.8 1924.2,21.8 1924.2,401.7 -5,401.7 		"/>
	</g>
</mask>
<path id="Stroke-91" class="st62" d="M1924.2,21.8C793.9,21.8,756.8,401.7-5,401.7"/>
<defs>
	<filter id="Adobe_OpacityMaskFilter_31_" filterUnits="userSpaceOnUse" x="-5" y="0.6" width="1929.2" height="392.6">
		<feColorMatrix  type="matrix" values="1 0 0 0 0  0 1 0 0 0  0 0 1 0 0  0 0 0 1 0"/>
	</filter>
</defs>
<mask maskUnits="userSpaceOnUse" x="-5" y="0.6" width="1929.2" height="392.6" id="mask-64">
	<g class="st63">
		<polygon id="path-63" class="st1" points="-5,0.9 1924.2,0.9 1924.2,393 -5,393 		"/>
	</g>
</mask>
<path id="Stroke-94" class="st64" d="M1924.2,0.9C756.2,0.9,782.2,393-5,393"/>
</svg>
