<?xml version="1.0" encoding="utf-8"?>
<!-- Generator: Adobe Illustrator 21.0.0, SVG Export Plug-In . SVG Version: 6.00 Build 0)  -->
<svg version="1.1" id="Layer_1" xmlns="http://www.w3.org/2000/svg" xmlns:xlink="http://www.w3.org/1999/xlink" x="0px" y="0px"
	 viewBox="0 0 1920 1024" style="enable-background:new 0 0 1920 1024;" xml:space="preserve">
<style type="text/css">
	.st0{fill:none;stroke:#5786AC;stroke-width:4;stroke-miterlimit:10;}
	.st1{fill:none;stroke:#5D8BAF;stroke-width:3.8654;stroke-miterlimit:10;}
	.st2{fill:none;stroke:#648FB2;stroke-width:3.7308;stroke-miterlimit:10;}
	.st3{fill:none;stroke:#6A94B6;stroke-width:3.5962;stroke-miterlimit:10;}
	.st4{fill:none;stroke:#7199B9;stroke-width:3.4615;stroke-miterlimit:10;}
	.st5{fill:none;stroke:#779DBC;stroke-width:3.3269;stroke-miterlimit:10;}
	.st6{fill:none;stroke:#7EA2BF;stroke-width:3.1923;stroke-miterlimit:10;}
	.st7{fill:none;stroke:#84A7C2;stroke-width:3.0577;stroke-miterlimit:10;}
	.st8{fill:none;stroke:#8BABC6;stroke-width:2.9231;stroke-miterlimit:10;}
	.st9{fill:none;stroke:#91B0C9;stroke-width:2.7885;stroke-miterlimit:10;}
	.st10{fill:none;stroke:#98B5CC;stroke-width:2.6538;stroke-miterlimit:10;}
	.st11{fill:none;stroke:#9EB9CF;stroke-width:2.5192;stroke-miterlimit:10;}
	.st12{fill:none;stroke:#A5BED2;stroke-width:2.3846;stroke-miterlimit:10;}
	.st13{fill:none;stroke:#ABC2D5;stroke-width:2.25;stroke-miterlimit:10;}
	.st14{fill:none;stroke:#B1C7D9;stroke-width:2.1154;stroke-miterlimit:10;}
	.st15{fill:none;stroke:#B8CCDC;stroke-width:1.9808;stroke-miterlimit:10;}
	.st16{fill:none;stroke:#BED0DF;stroke-width:1.8462;stroke-miterlimit:10;}
	.st17{fill:none;stroke:#C5D5E2;stroke-width:1.7115;stroke-miterlimit:10;}
	.st18{fill:none;stroke:#CBDAE5;stroke-width:1.5769;stroke-miterlimit:10;}
	.st19{fill:none;stroke:#D2DEE9;stroke-width:1.4423;stroke-miterlimit:10;}
	.st20{fill:none;stroke:#D8E3EC;stroke-width:1.3077;stroke-miterlimit:10;}
	.st21{fill:none;stroke:#DFE8EF;stroke-width:1.1731;stroke-miterlimit:10;}
	.st22{fill:none;stroke:#E5ECF2;stroke-width:1.0385;stroke-miterlimit:10;}
	.st23{fill:none;stroke:#ECF1F5;stroke-width:0.9038;stroke-miterlimit:10;}
	.st24{fill:none;stroke:#F2F6F9;stroke-width:0.7692;stroke-miterlimit:10;}
	.st25{fill:none;stroke:#F9FAFC;stroke-width:0.6346;stroke-miterlimit:10;}
	.st26{fill:none;stroke:#FFFFFF;stroke-width:0.5;stroke-miterlimit:10;}
	.st27{fill:none;stroke:#F6F6F3;stroke-width:4;stroke-miterlimit:10;}
	.st28{fill:none;stroke:#F2F3F1;stroke-width:3.9146;stroke-miterlimit:10;}
	.st29{fill:none;stroke:#EEF1F0;stroke-width:3.8293;stroke-miterlimit:10;}
	.st30{fill:none;stroke:#EAEEEE;stroke-width:3.7439;stroke-miterlimit:10;}
	.st31{fill:none;stroke:#E6EBEC;stroke-width:3.6585;stroke-miterlimit:10;}
	.st32{fill:none;stroke:#E3E8EA;stroke-width:3.5732;stroke-miterlimit:10;}
	.st33{fill:none;stroke:#DFE6E9;stroke-width:3.4878;stroke-miterlimit:10;}
	.st34{fill:none;stroke:#DBE3E7;stroke-width:3.4024;stroke-miterlimit:10;}
	.st35{fill:none;stroke:#D7E0E5;stroke-width:3.3171;stroke-miterlimit:10;}
	.st36{fill:none;stroke:#D3DDE3;stroke-width:3.2317;stroke-miterlimit:10;}
	.st37{fill:none;stroke:#CFDBE2;stroke-width:3.1463;stroke-miterlimit:10;}
	.st38{fill:none;stroke:#CBD8E0;stroke-width:3.061;stroke-miterlimit:10;}
	.st39{fill:none;stroke:#C7D5DE;stroke-width:2.9756;stroke-miterlimit:10;}
	.st40{fill:none;stroke:#C4D2DC;stroke-width:2.8902;stroke-miterlimit:10;}
	.st41{fill:none;stroke:#C0D0DB;stroke-width:2.8049;stroke-miterlimit:10;}
	.st42{fill:none;stroke:#BCCDD9;stroke-width:2.7195;stroke-miterlimit:10;}
	.st43{fill:none;stroke:#B8CAD7;stroke-width:2.6341;stroke-miterlimit:10;}
	.st44{fill:none;stroke:#B4C8D6;stroke-width:2.5488;stroke-miterlimit:10;}
	.st45{fill:none;stroke:#B0C5D4;stroke-width:2.4634;stroke-miterlimit:10;}
	.st46{fill:none;stroke:#ACC2D2;stroke-width:2.378;stroke-miterlimit:10;}
	.st47{fill:none;stroke:#A8BFD0;stroke-width:2.2927;stroke-miterlimit:10;}
	.st48{fill:none;stroke:#A5BDCF;stroke-width:2.2073;stroke-miterlimit:10;}
	.st49{fill:none;stroke:#A1BACD;stroke-width:2.122;stroke-miterlimit:10;}
	.st50{fill:none;stroke:#9DB7CB;stroke-width:2.0366;stroke-miterlimit:10;}
	.st51{fill:none;stroke:#99B4C9;stroke-width:1.9512;stroke-miterlimit:10;}
	.st52{fill:none;stroke:#95B2C8;stroke-width:1.8659;stroke-miterlimit:10;}
	.st53{fill:none;stroke:#91AFC6;stroke-width:1.7805;stroke-miterlimit:10;}
	.st54{fill:none;stroke:#8DACC4;stroke-width:1.6951;stroke-miterlimit:10;}
	.st55{fill:none;stroke:#89AAC3;stroke-width:1.6098;stroke-miterlimit:10;}
	.st56{fill:none;stroke:#86A7C1;stroke-width:1.5244;stroke-miterlimit:10;}
	.st57{fill:none;stroke:#82A4BF;stroke-width:1.439;stroke-miterlimit:10;}
	.st58{fill:none;stroke:#7EA1BD;stroke-width:1.3537;stroke-miterlimit:10;}
	.st59{fill:none;stroke:#7A9FBC;stroke-width:1.2683;stroke-miterlimit:10;}
	.st60{fill:none;stroke:#769CBA;stroke-width:1.1829;stroke-miterlimit:10;}
	.st61{fill:none;stroke:#7299B8;stroke-width:1.0976;stroke-miterlimit:10;}
	.st62{fill:none;stroke:#6E96B6;stroke-width:1.0122;stroke-miterlimit:10;}
	.st63{fill:none;stroke:#6A94B5;stroke-width:0.9268;stroke-miterlimit:10;}
	.st64{fill:none;stroke:#6791B3;stroke-width:0.8415;stroke-miterlimit:10;}
	.st65{fill:none;stroke:#638EB1;stroke-width:0.7561;stroke-miterlimit:10;}
	.st66{fill:none;stroke:#5F8BAF;stroke-width:0.6707;stroke-miterlimit:10;}
	.st67{fill:none;stroke:#5B89AE;stroke-width:0.5854;stroke-miterlimit:10;}
	.st68{fill:none;stroke:#5786AC;stroke-width:0.5;stroke-miterlimit:10;}
	.st69{fill:none;stroke:#F37160;stroke-width:4;stroke-miterlimit:10;}
	.st70{fill:none;stroke:#F37666;stroke-width:3.8654;stroke-miterlimit:10;}
	.st71{fill:none;stroke:#F47C6C;stroke-width:3.7308;stroke-miterlimit:10;}
	.st72{fill:none;stroke:#F48172;stroke-width:3.5962;stroke-miterlimit:10;}
	.st73{fill:none;stroke:#F58778;stroke-width:3.4615;stroke-miterlimit:10;}
	.st74{fill:none;stroke:#F58C7F;stroke-width:3.3269;stroke-miterlimit:10;}
	.st75{fill:none;stroke:#F69285;stroke-width:3.1923;stroke-miterlimit:10;}
	.st76{fill:none;stroke:#F6978B;stroke-width:3.0577;stroke-miterlimit:10;}
	.st77{fill:none;stroke:#F79D91;stroke-width:2.9231;stroke-miterlimit:10;}
	.st78{fill:none;stroke:#F7A297;stroke-width:2.7885;stroke-miterlimit:10;}
	.st79{fill:none;stroke:#F8A89D;stroke-width:2.6538;stroke-miterlimit:10;}
	.st80{fill:none;stroke:#F8ADA3;stroke-width:2.5192;stroke-miterlimit:10;}
	.st81{fill:none;stroke:#F9B3A9;stroke-width:2.3846;stroke-miterlimit:10;}
	.st82{fill:none;stroke:#F9B8AF;stroke-width:2.25;stroke-miterlimit:10;}
	.st83{fill:none;stroke:#F9BDB6;stroke-width:2.1154;stroke-miterlimit:10;}
	.st84{fill:none;stroke:#FAC3BC;stroke-width:1.9808;stroke-miterlimit:10;}
	.st85{fill:none;stroke:#FAC8C2;stroke-width:1.8462;stroke-miterlimit:10;}
	.st86{fill:none;stroke:#FBCEC8;stroke-width:1.7115;stroke-miterlimit:10;}
	.st87{fill:none;stroke:#FBD3CE;stroke-width:1.5769;stroke-miterlimit:10;}
	.st88{fill:none;stroke:#FCD9D4;stroke-width:1.4423;stroke-miterlimit:10;}
	.st89{fill:none;stroke:#FCDEDA;stroke-width:1.3077;stroke-miterlimit:10;}
	.st90{fill:none;stroke:#FDE4E0;stroke-width:1.1731;stroke-miterlimit:10;}
	.st91{fill:none;stroke:#FDE9E7;stroke-width:1.0385;stroke-miterlimit:10;}
	.st92{fill:none;stroke:#FEEFED;stroke-width:0.9038;stroke-miterlimit:10;}
	.st93{fill:none;stroke:#FEF4F3;stroke-width:0.7692;stroke-miterlimit:10;}
	.st94{fill:none;stroke:#FFFAF9;stroke-width:0.6346;stroke-miterlimit:10;}
</style>
<g>
	<line class="st0" x1="0" y1="2" x2="1920" y2="2"/>
	<path class="st1" d="M0,32.2c13.4,0,1111.4-20.1,1135.3-20.1c16,0,770.4,9.3,784.7,9.3"/>
	<path class="st2" d="M0.1,62.5c26.8,0,1086.2-40.2,1134-40.2c32,0,757.3,18.7,785.9,18.7"/>
	<path class="st3" d="M0.1,92.8c40.2,0,1061-60.3,1132.7-60.3c48,0,744.2,28,787.2,28"/>
	<path class="st4" d="M0.1,123c53.7,0,1035.8-80.5,1131.4-80.5c64,0,731.1,37.4,788.4,37.4"/>
	<path class="st5" d="M0.1,153.2c67.1,0,1010.6-100.6,1130.1-100.6c80,0,718,46.7,789.7,46.7"/>
	<path class="st6" d="M0.2,183.5c80.5,0,985.4-120.7,1128.8-120.7c96,0,704.9,56.1,790.9,56.1"/>
	<path class="st7" d="M0.2,213.8c93.9,0,960.2-140.8,1127.5-140.8c112,0,691.8,65.4,792.2,65.4"/>
	<path class="st8" d="M0.2,244c107.3,0,935-160.9,1126.2-160.9c128,0,678.7,74.8,793.4,74.8"/>
	<path class="st9" d="M0.2,274.2c120.7,0,909.9-181,1124.9-181c144,0,665.6,84.1,794.6,84.1"/>
	<path class="st10" d="M0.3,304.5c134.2,0,884.7-201.2,1123.6-201.2c160,0,652.5,93.5,795.9,93.5"/>
	<path class="st11" d="M0.3,334.8c147.6,0,859.5-221.3,1122.3-221.3c176,0,639.4,102.8,797.1,102.8"/>
	<path class="st12" d="M0.3,365c161,0,834.3-241.4,1121-241.4c192,0,626.3,112.2,798.4,112.2"/>
	<path class="st13" d="M0.3,395.2c174.4,0,809.1-261.5,1119.7-261.5c208,0,613.2,121.5,799.6,121.5"/>
	<path class="st14" d="M0.4,425.5c187.8,0,783.9-281.6,1118.4-281.6c224,0,600.1,130.9,800.9,130.9"/>
	<path class="st15" d="M0.4,455.8c201.2,0,758.7-301.7,1117.1-301.7c240,0,587,140.2,802.1,140.2"/>
	<path class="st16" d="M0.4,486c214.6,0,733.5-321.8,1115.8-321.8c256,0,573.9,149.6,803.4,149.6"/>
	<path class="st17" d="M0.5,516.2c228.1,0,708.4-342,1114.5-342c272,0,560.8,158.9,804.6,158.9"/>
	<path class="st18" d="M0.5,546.5c241.5,0,683.2-362.1,1113.2-362.1c288,0,547.8,168.3,805.8,168.3"/>
	<path class="st19" d="M0.5,576.8c254.9,0,658-382.2,1111.9-382.2c304,0,534.7,177.6,807.1,177.6"/>
	<path class="st20" d="M0.5,607c268.3,0,632.8-402.3,1110.6-402.3c320,0,521.6,187,808.3,187"/>
	<path class="st21" d="M0.6,637.2c281.7,0,607.6-422.4,1109.3-422.4c336,0,508.5,196.3,809.6,196.3"/>
	<path class="st22" d="M0.6,667.5c295.1,0,582.4-442.5,1108-442.5c352,0,495.4,205.7,810.8,205.7"/>
	<path class="st23" d="M0.6,697.8c308.6,0,557.2-462.7,1106.7-462.7c368,0,482.3,215,812.1,215"/>
	<path class="st24" d="M0.6,728c322,0,532-482.8,1105.4-482.8c384,0,469.2,224.4,813.3,224.4"/>
	<path class="st25" d="M0.7,758.2c335.4,0,506.8-502.9,1104.1-502.9c400,0,456.1,233.7,814.6,233.7"/>
	<path class="st26" d="M0.7,788.5c348.8,0,481.7-523,1102.8-523c416,0,443,243.1,815.8,243.1"/>
</g>
</svg>
